<svg width="22" height="23" viewBox="0 0 22 23" fill="none" xmlns="http://www.w3.org/2000/svg">
<path opacity="0.987" fill-rule="evenodd" clip-rule="evenodd" d="M9.58116 0.0976724C10.7468 -0.0325575 11.4365 -0.0325575 12.689 0.0976724C14.906 0.425812 16.9612 1.45059 18.5574 3.02383C17.4788 4.04337 16.4143 5.07781 15.3643 6.12683C13.3535 4.42259 11.1091 4.02922 8.63097 4.94673C6.81311 5.78277 5.54725 7.13759 4.8334 9.01119C3.66686 8.14271 2.51552 7.25401 1.37989 6.34549C1.30097 6.30395 1.21083 6.28874 1.12265 6.30208C2.92658 2.82393 5.74554 0.755253 9.57955 0.0960646" fill="#F44336"/>
<path opacity="0.997" fill-rule="evenodd" clip-rule="evenodd" d="M1.11942 6.30206C1.21053 6.28813 1.29681 6.3026 1.37827 6.34547C2.51389 7.25399 3.66524 8.14269 4.83177 9.01117C4.64821 9.74119 4.53249 10.4866 4.4861 11.2379C4.52576 11.9647 4.64098 12.678 4.83177 13.3779L1.20624 16.2638C-0.372599 12.9647 -0.401539 9.64409 1.11942 6.30206Z" fill="#FFC107"/>
<path opacity="0.999" fill-rule="evenodd" clip-rule="evenodd" d="M18.3853 19.7592C17.2564 18.7636 16.0746 17.8297 14.845 16.9616C16.0776 16.0913 16.8258 14.8973 17.0895 13.3795H11.049V9.18483C14.5326 9.15589 18.0145 9.18536 21.4948 9.27325C22.155 12.8586 21.3924 16.0913 19.2069 18.9714C18.947 19.2476 18.6717 19.5106 18.3853 19.7592Z" fill="#448AFF"/>
<path opacity="0.993" fill-rule="evenodd" clip-rule="evenodd" d="M4.83177 13.3795C6.15015 16.6562 8.56717 18.1857 12.0828 17.9681C13.0698 17.8539 14.016 17.5091 14.845 16.9616C16.0755 17.832 17.2556 18.7645 18.3853 19.7592C16.5953 21.3677 14.313 22.3221 11.9108 22.4667C11.365 22.5103 10.8167 22.5103 10.2709 22.4667C6.17855 21.9843 3.15701 19.9167 1.20624 16.2639L4.83177 13.3795Z" fill="#43A047"/>
</svg>
